<?xml version="1.0" standalone="no"?><!DOCTYPE svg PUBLIC "-//W3C//DTD SVG 1.1//EN" "http://www.w3.org/Graphics/SVG/1.1/DTD/svg11.dtd"><svg t="1735114118177" class="icon" viewBox="0 0 1024 1024" version="1.1" xmlns="http://www.w3.org/2000/svg" p-id="4932" xmlns:xlink="http://www.w3.org/1999/xlink" width="200" height="200"><path d="M885.29 140.247c-2.829-5.655-4.242-9.899-8.484-15.553-2.829-5.655-5.655-9.899-9.899-15.553-62.215-82.010-135.744-65.043-183.818-21.21-35.349 32.522-93.323 80.596-120.189 104.636-11.312-5.655-22.624-8.484-35.349-8.484-14.141 0-28.278 4.242-39.591 11.312-25.452-21.21-86.253-73.527-123.015-106.048-48.076-43.833-121.602-60.801-183.818 21.21-4.242 5.655-7.069 11.312-11.312 15.553v1.414c-45.248 80.596-4.242 183.818-4.242 183.818l1.414 1.414c-31.108 24.037-46.661 59.387-46.661 97.564v311.076c0 42.42 8.484 79.184 89.082 124.43 12.725 7.069 28.278 15.553 43.833 22.624h1.414c80.596 39.591 183.818 77.77 213.509 89.082 36.763 12.725 82.010 22.624 128.671 0 21.21-11.312 67.871-39.591 113.118-67.871l1.414-1.414c50.903-32.522 101.806-65.043 118.773-76.354 32.522-19.795 42.42-36.763 42.42-101.806v-301.178c0-26.866-5.655-46.661-18.382-63.629 11.312-8.484 21.21-21.21 29.694-35.349-1.414 1.414 35.349-90.494 1.414-169.678z" fill="#FCE8D0" p-id="4933"></path><path d="M767.931 52.579c32.522 0 67.871 15.553 98.979 57.974 4.242 4.242 7.069 9.899 9.899 15.553 2.829 5.655 5.655 9.899 8.484 15.553 33.935 77.77-2.829 171.091-2.829 171.091-8.484 14.141-18.382 26.866-29.694 35.349 14.141 16.967 18.382 36.763 18.382 63.629v301.178c0 66.458-9.899 82.010-42.42 101.806-16.967 9.899-67.871 43.833-118.773 76.354l-1.414 1.414c-45.248 29.694-91.908 57.974-113.118 67.871-19.795 9.899-39.591 14.141-59.387 14.141-25.452 0-48.076-7.069-69.285-14.141-31.108-11.312-132.914-49.49-213.509-89.082h-1.414c-15.553-7.069-31.108-15.553-43.833-22.624-82.010-46.661-89.082-82.010-89.082-124.43v-311.076c0-38.177 15.553-73.527 46.661-97.564l-1.414-1.414s-41.007-104.636 4.242-183.818v-1.414c2.829-5.655 7.069-11.312 11.312-15.553 32.522-41.007 66.458-57.974 98.979-57.974 31.108 0 60.801 15.553 84.838 36.763 36.763 33.935 97.564 84.838 123.015 106.048 11.312-7.069 25.452-11.312 39.591-11.312 12.725 0 24.037 2.829 35.349 8.484 26.866-22.624 84.838-72.113 120.189-104.636 24.037-22.624 53.731-38.177 86.253-38.177M767.931 17.232c-38.177 0-76.354 16.967-108.878 46.661-29.694 26.866-72.113 63.629-103.22 89.082-9.899-2.829-18.382-4.242-28.278-4.242-11.312 0-22.624 1.414-33.935 5.655-29.694-25.452-74.941-63.629-104.636-91.908-32.522-29.694-70.7-46.661-108.878-46.661-32.522 0-82.010 12.725-127.26 72.113-4.242 5.655-9.899 12.725-12.725 19.795 0 0 0 1.414-1.414 1.414-39.591 70.7-24.037 154.124-12.725 192.301-26.866 29.694-41.007 66.458-41.007 107.462v311.076c0 59.387 18.382 104.636 107.462 155.538 12.725 7.069 26.866 14.141 45.248 22.624 1.414 0 1.414 1.414 2.829 1.414 89.082 43.833 203.613 84.838 216.339 89.082 29.694 11.312 56.56 15.553 82.010 15.553 26.866 0 52.317-5.655 74.941-16.967 19.795-9.899 55.145-31.108 115.947-70.7l1.414-1.414c21.21-12.725 41.007-26.866 59.387-38.177 26.866-16.967 49.49-31.108 59.387-36.763 46.661-28.278 59.387-57.974 59.387-132.914v-294.108c0-22.624-2.829-41.007-9.899-57.974 5.655-7.069 11.312-14.141 15.553-22.624 1.414-1.414 1.414-2.829 2.829-5.655 1.414-4.242 41.007-107.462 1.414-197.956-2.829-7.069-5.655-12.725-9.899-18.382-4.242-7.069-8.484-12.725-12.725-18.382-46.661-62.215-96.151-74.941-128.671-74.941z" fill="#640F13" p-id="4934"></path><path d="M117.5 431.527v292.693c0 42.42 8.484 79.184 89.082 124.43s221.996 98.979 258.759 111.705c36.763 12.725 82.010 22.624 128.671 0s200.785-124.43 233.307-144.226c32.522-19.795 42.42-36.763 42.42-101.806v-282.796h-752.238z" fill="#98CF97" p-id="4935"></path><path d="M562.903 814.715c2.829 35.349 5.655 82.010 8.484 98.979 2.829 16.967 18.382 15.553 48.076 0s180.99-113.118 200.785-125.845c18.382-12.725 31.108-12.725 31.108-52.317 0-39.591 2.829-21.21 0-69.285-2.829-48.076-8.484-65.043-24.037-55.145s-178.162 101.806-206.441 118.773c-31.108 16.967-62.215 41.007-57.974 84.838z" fill="#83B585" p-id="4936"></path><path d="M536.037 984.392c-28.278 0-52.317-7.069-72.113-14.141-16.967-5.655-171.091-62.215-260.172-113.118-87.668-49.49-94.737-89.082-94.737-132.914v-292.693c0-4.242 4.242-8.484 8.484-8.484h753.651c4.242 0 8.484 4.242 8.484 8.484v282.796c0 65.043-9.899 87.668-46.661 110.29-9.899 5.655-32.522 19.795-59.387 36.763-60.801 38.177-142.813 91.908-175.332 107.462-21.21 11.312-42.42 15.553-62.215 15.553zM125.983 440.010v284.21c0 39.591 5.655 72.113 84.838 117.361 70.7 39.591 195.13 89.082 257.345 111.705 31.108 11.312 76.354 22.624 121.602 0 31.108-15.553 113.118-67.871 173.921-106.048 26.866-16.967 49.49-31.108 59.387-38.177 28.278-16.967 38.177-28.278 38.177-94.737v-274.313h-735.27z" fill="#640F13" p-id="4937"></path><path d="M871.152 410.318v53.731c0 66.458-9.899 82.010-42.42 101.806s-188.059 121.602-233.307 144.226c-46.661 22.624-91.908 12.725-128.671 0-36.763-12.725-178.162-66.458-258.759-111.705s-89.082-82.010-89.082-124.43v-63.629c0-48.076 25.452-93.323 77.77-115.947s200.785-65.043 247.447-83.425c46.661-18.382 117.361-18.382 155.538 0 29.694 14.141 123.015 56.56 164.022 76.354 84.838 43.833 107.462 65.043 107.462 123.015z" fill="#98CF97" p-id="4938"></path><path d="M536.037 734.118c-28.278 0-52.317-7.069-72.113-14.141-16.967-5.655-172.507-62.215-260.172-113.118-87.668-49.49-94.737-89.082-94.737-132.914v-63.629c0-55.145 31.108-101.806 83.425-124.43 29.694-12.725 87.668-31.108 142.813-49.49 43.833-14.141 84.838-26.866 104.636-35.349 49.49-19.795 121.602-19.795 162.608 0 12.725 7.069 38.177 18.382 66.458 31.108 35.349 15.553 73.527 33.935 97.564 45.248 84.838 42.42 113.118 66.458 113.118 130.086v53.731c0 65.043-9.899 87.668-46.661 110.29-9.899 5.655-32.522 19.795-59.387 38.177-60.801 38.177-142.813 91.908-175.332 107.462-21.21 12.725-42.42 16.967-62.215 16.967zM524.725 205.289c-26.866 0-55.145 4.242-77.77 12.725-21.21 8.484-62.215 21.21-106.048 35.349-52.317 16.967-113.118 35.349-141.398 48.076-46.661 19.795-73.527 59.387-73.527 107.462v63.629c0 39.591 5.655 72.113 84.838 117.361 87.668 49.49 240.377 104.636 257.345 111.705 31.108 11.312 76.354 22.624 121.602 0 31.108-15.553 113.118-67.871 173.921-106.048 26.866-16.967 49.49-31.108 59.387-38.177 28.278-16.967 38.177-28.278 38.177-94.737v-53.731c0-52.317-18.382-72.113-103.22-114.532-22.624-11.312-62.215-29.694-96.151-45.248-28.278-12.725-53.731-25.452-67.871-31.108-16.967-7.069-42.42-12.725-69.285-12.725z" fill="#640F13" p-id="4939"></path><path d="M656.226 468.29c-94.737 38.177-124.43 38.177-115.947 130.086 8.484 91.908 5.655 103.22 41.007 90.494 35.349-12.725 221.996-125.845 246.032-144.226 16.967-12.725 19.795-31.108 21.21-56.56 0-32.522 9.899-84.838-22.624-77.77-32.522 5.655-169.678 57.974-169.678 57.974z" fill="#83B585" p-id="4940"></path><path d="M251.828 872.688v-378.946c0-60.801 21.21-103.22 80.596-128.671s98.979-39.591 98.979-39.591l-127.26-67.871 113.118-36.763 121.602 57.974 111.705-43.833 90.494 42.42-108.878 50.903s39.591 16.967 74.941 36.763c35.349 21.21 79.184 65.043 79.184 166.848v311.076l-77.77 49.49v-340.769c0-106.048-86.253-132.914-86.253-132.914l-103.22-48.076s-65.043 18.382-110.29 39.591c-45.248 19.795-57.974 46.661-57.974 87.668v417.124l-98.979-42.42z" fill="#DB4342" p-id="4941"></path><path d="M302.732 380.623s19.795 19.795 83.425 5.655c36.763-8.484 50.903-26.866 63.629-35.349 8.484-5.655 19.795-7.069 28.278-2.829 11.312 4.242 18.382 8.484 39.591 9.899 22.624 1.414 49.49-1.414 60.801-7.069 5.655-2.829 15.553-5.655 18.382 0 5.655 11.312 45.248 32.522 117.361 21.21 0 0-94.737-82.010-154.124-84.838s-128.671 4.242-176.747 25.452c-48.076 19.795-80.596 67.871-80.596 67.871z" fill="#C83D3C" p-id="4942"></path><path d="M350.806 923.593c-1.414 0-2.829 0-2.829-1.414l-98.979-42.42c-2.829-1.414-5.655-4.242-5.655-8.484v-378.946c0-69.285 26.866-110.29 86.253-137.155 35.349-15.553 63.629-26.866 80.596-32.522l-110.29-57.974c-2.829-1.414-5.655-5.655-4.242-8.484 0-4.242 2.829-7.069 5.655-7.069l113.118-36.763h7.069l118.773 56.56 108.878-42.42c2.829-1.414 4.242-1.414 7.069 0l90.494 42.42c2.829 1.414 5.655 4.242 5.655 8.484 0 2.829-1.414 7.069-5.655 8.484l-91.908 42.42c14.141 7.069 36.763 16.967 57.974 29.694 38.177 21.21 83.425 69.285 83.425 173.921v311.076c0 2.829-1.414 5.655-4.242 7.069l-79.184 50.903c-2.829 1.414-5.655 1.414-8.484 0s-4.242-4.242-4.242-8.484v-339.355c0-97.564-77.77-123.015-80.596-124.43l-100.393-48.076c-14.141 4.242-67.871 19.795-106.048 38.177s-52.317 38.177-52.317 79.184v417.124c0 2.829-1.414 5.655-4.242 7.069s-4.242 1.414-5.655 1.414zM260.311 867.033l82.010 33.935v-402.985c0-48.076 18.382-74.941 63.629-96.151 45.248-19.795 108.878-38.177 111.705-39.591h5.655l103.22 48.076s91.908 29.694 91.908 139.984v323.802l59.387-38.177v-304.006c0-74.941-25.452-130.086-73.527-158.366-33.935-19.795-73.527-36.763-73.527-36.763-2.829-1.414-5.655-4.242-5.655-8.484 0-2.829 1.414-7.069 5.655-8.484l91.908-42.42-70.7-32.522-108.878 42.42c-2.829 1.414-4.242 1.414-7.069 0l-118.773-56.56-89.082 29.694 108.878 57.974c2.829 1.414 5.655 5.655 4.242 8.484 0 4.242-2.829 7.069-5.655 7.069 0 0-39.591 12.725-97.564 39.591-53.731 24.037-74.941 57.974-74.941 120.189v373.29z" fill="#640F13" p-id="4943"></path><path d="M866.909 110.552c-62.215-82.010-135.744-65.043-183.818-21.21s-135.744 117.361-135.744 117.361h-46.661s-87.668-73.527-135.744-117.361c-48.076-43.833-121.602-60.801-183.818 21.21s-15.553 200.785-15.553 200.785c26.866 43.833 59.387 62.215 131.501 57.974 70.7-4.242 178.162-57.974 178.162-57.974h101.806s107.462 55.145 178.162 57.974c70.7 4.242 104.636-14.141 131.501-57.974-4.242 0 42.42-118.773-19.795-200.785z" fill="#DB4342" p-id="4944"></path><path d="M642.086 300.026c-1.414 0-2.829 0-4.242-1.414-33.935-14.141-50.903-28.278-52.317-38.177-1.414-12.725 8.484-19.795 26.866-31.108 5.655-4.242 14.141-8.484 24.037-15.553 4.242-2.829 9.899-1.414 12.725 2.829 2.829 4.242 1.414 9.899-2.829 12.725-9.899 7.069-18.382 11.312-24.037 15.553-14.141 8.484-18.382 12.725-18.382 14.141 1.414 2.829 21.21 15.553 41.007 24.037 4.242 1.414 7.069 7.069 4.242 11.312 0 2.829-2.829 5.655-7.069 5.655zM403.122 288.715c-4.242 0-8.484-4.242-8.484-8.484s4.242-8.484 8.484-8.484c31.108 0 41.007-7.069 45.248-11.312 2.829-2.829 2.829-7.069 2.829-7.069v-2.829c-1.414-4.242-18.382-14.141-35.349-21.21-4.242-1.414-7.069-7.069-5.655-11.312 1.414-4.242 7.069-7.069 11.312-5.655 14.141 5.655 45.248 18.382 46.661 36.763 0 2.829 1.414 11.312-5.655 19.795-9.899 12.725-29.694 19.795-59.387 19.795z" fill="#640F13" p-id="4945"></path><path d="M299.902 120.451c69.285 31.108 127.26 86.253 182.403 91.908s93.323 4.242 169.678-39.591c57.974-33.935 121.602-74.941 233.307-31.108-4.242-9.899-9.899-21.21-18.382-29.694-62.215-82.010-135.744-65.043-183.818-21.21-48.076 43.833-135.744 117.361-135.744 117.361h-46.661s-87.668-73.527-135.744-117.361c-48.076-43.833-121.602-60.801-183.818 21.21-8.484 9.899-14.141 21.21-18.382 32.522-1.414-1.414 67.871-55.145 137.155-24.037z" fill="#E86363" p-id="4946"></path><path d="M275.865 379.209c-59.387 0-93.323-18.382-120.189-63.629-2.829-5.655-49.49-125.845 15.553-210.684 28.278-36.763 60.801-57.974 97.564-60.801 33.935-2.829 69.285 11.312 100.393 38.177 42.42 39.591 118.773 103.22 132.914 114.532h41.007c14.141-12.725 90.494-76.354 132.914-114.532 31.108-28.278 66.458-41.007 100.393-38.177 35.349 2.829 67.871 24.037 97.564 60.801 65.043 84.838 18.382 205.028 16.967 209.268-29.694 50.903-69.285 67.871-139.984 63.629-67.871-4.242-164.022-50.903-179.575-57.974h-96.151c-15.553 7.069-111.705 55.145-179.575 57.974-7.069 1.414-12.725 1.414-19.795 1.414zM278.693 62.478h-7.069c-31.108 2.829-59.387 21.21-84.838 53.731-59.387 76.354-15.553 190.887-14.141 192.301 21.21 36.763 49.49 56.56 121.602 53.731 67.871-4.242 173.921-56.56 173.921-57.974 1.414 0 2.829-1.414 4.242-1.414h100.393c1.414 0 2.829 0 4.242 1.414 1.414 0 106.048 53.731 173.921 57.974 73.527 4.242 100.393-16.967 123.015-53.731 0 0 43.833-114.532-15.553-190.887-25.452-32.522-53.731-50.903-84.838-53.731-29.694-2.829-60.801 9.899-86.253 33.935-48.076 43.833-135.744 117.361-135.744 117.361-1.414 1.414-4.242 1.414-5.655 1.414h-46.661c-1.414 0-4.242-1.414-5.655-1.414-1.414-1.414-89.082-73.527-135.744-117.361-24.037-24.037-52.317-35.349-79.184-35.349z" fill="#640F13" p-id="4947"></path><path d="M448.371 264.676c0 0 0 0 0 0 0 43.73 35.452 79.184 79.184 79.184 43.73 0 79.184-35.452 79.184-79.184 0 0 0 0 0 0 0 0 0 0 0 0 0-43.73-35.452-79.184-79.184-79.184-43.73 0-79.184 35.452-79.184 79.184s0 0 0 0z" fill="#FFDF00" p-id="4948"></path><path d="M527.553 352.343c-48.076 0-87.668-39.591-87.668-87.668s39.591-87.668 87.668-87.668c48.076 0 87.668 39.591 87.668 87.668 0 48.076-39.591 87.668-87.668 87.668zM527.553 193.978c-38.177 0-70.7 31.108-70.7 70.7 0 38.177 31.108 70.7 70.7 70.7 38.177 0 70.7-31.108 70.7-70.7-1.414-39.591-32.522-70.7-70.7-70.7z" fill="#640F13" p-id="4949"></path><path d="M482.306 250.537c0 16.4 13.295 29.694 29.694 29.694s29.694-13.295 29.694-29.694c0 0 0 0 0 0 0-16.4-13.295-29.694-29.694-29.694-16.4 0-29.694 13.295-29.694 29.694 0 0 0 0 0 0z" fill="#FFF69D" p-id="4950"></path><path d="M763.689 640.795c0 94.737-7.069 180.99-14.141 180.99s-14.141-11.312-14.141-104.636 4.242-231.892 11.312-231.892c7.069 1.414 16.967 62.215 16.967 155.538z" fill="#C83D3C" p-id="4951"></path><path d="M292.866 449.192c0 0 0 0 0 0-12.308 9.613-18.002 22.894-12.714 29.665 5.286 6.771 19.553 4.465 31.861-5.15 0 0 0 0 0 0 0 0 0 0 0 0 12.308-9.613 18.002-22.894 12.714-29.665-5.286-6.771-19.553-4.465-31.861 5.15s0 0 0 0z" fill="#E86363" p-id="4952"></path></svg>