<?xml version="1.0" standalone="no"?><!DOCTYPE svg PUBLIC "-//W3C//DTD SVG 1.1//EN" "http://www.w3.org/Graphics/SVG/1.1/DTD/svg11.dtd"><svg t="1735080425569" class="icon" viewBox="0 0 1024 1024" version="1.1" xmlns="http://www.w3.org/2000/svg" p-id="9042" xmlns:xlink="http://www.w3.org/1999/xlink" width="200" height="200"><path d="M148.48 681.984S134.9632 110.1312 521.0112 110.1312s358.4 477.44 358.4 477.44-115.6096-51.6608-115.6096 21.4528c0 26.4704-1.28 56.9344 0 108.8-319.3344 63.1808-617.0112 0-617.0112 0z" fill="#ff5050" p-id="9043"></path><path d="M789.7088 636.3136a15.36 15.36 0 0 1-14.7968-11.3152c-40.96-150.528-221.7472-181.504-223.5392-181.8112a15.36 15.36 0 1 1 5.12-30.3104 383.232 383.232 0 0 1 106.0352 37.3248c73.8304 38.7072 122.88 96.3584 142.2336 166.7072a15.36 15.36 0 0 1-10.8032 18.8416 13.7728 13.7728 0 0 1-4.2496 0.5632z" fill="#585858" p-id="9044"></path><path d="M465.92 761.088c-180.3776 0-309.9136-27.8016-311.8592-28.2624l-12.5952-2.7648 2.048-48.128a1016.32 1016.32 0 0 1 12.9536-182.4256c21.76-135.9872 66.56-240.0256 133.12-309.248 60.8256-63.3344 138.8544-95.488 231.936-95.488 104.2944 0 189.0816 33.8432 252.0576 100.5568 134.5536 142.5408 122.3168 382.9248 121.7024 393.1136l-1.2288 21.7088-20.0704-8.448c-23.9104-10.24-68.4544-21.6064-86.2208-10.24-3.3792 2.2528-7.936 6.656-8.0384 19.2-0.256 23.1424-0.5632 54.8352 0 106.752v12.7488l-12.544 2.5088A1562.9312 1562.9312 0 0 1 465.92 761.088z m-292.9152-55.7568c57.7024 10.8032 305.152 50.6368 575.3344 0-0.3584-44.7488 0-73.2672 0-94.5664 0.256-25.1392 12.0832-38.0928 21.9648-44.5952 26.0608-17.1008 68.4544-8.1408 94.0544 0A723.456 723.456 0 0 0 854.7328 450.56c-11.52-68.864-38.912-165.4272-104.0896-234.3936-56.9344-60.2624-134.1952-90.8288-229.632-90.8288-84.3776 0-154.9312 28.928-209.92 85.9648C162.8672 366.08 174.08 678.1952 174.08 681.3696v0.6144z" fill="#585858" p-id="9045"></path><path d="M61.0304 681.984m112.384 0l632.7808 0q112.384 0 112.384 112.384l0 0.6144q0 112.384-112.384 112.384l-632.7808 0q-112.384 0-112.384-112.384l0-0.6144q0-112.384 112.384-112.384Z" fill="#FFFFFF" p-id="9046"></path><path d="M806.1952 922.7264H173.4144a128 128 0 0 1-127.744-127.6928v-0.6656a128 128 0 0 1 127.744-128h632.7808a128 128 0 0 1 127.744 128v0.6656a128 128 0 0 1-127.744 127.6928z m-632.7808-225.28a97.28 97.28 0 0 0-97.024 97.28v0.6656a97.28 97.28 0 0 0 97.024 96.9728h632.7808a97.28 97.28 0 0 0 97.024-96.9728v-0.6656a97.28 97.28 0 0 0-97.024-97.28z" fill="#585858" p-id="9047"></path><path d="M852.992 543.9488m-106.4448 0a106.4448 106.4448 0 1 0 212.8896 0 106.4448 106.4448 0 1 0-212.8896 0Z" fill="#FFFFFF" p-id="9048"></path><path d="M852.992 665.6a121.8048 121.8048 0 1 1 121.8048-121.8048A121.9072 121.9072 0 0 1 852.992 665.6z m0-212.8896a91.0848 91.0848 0 1 0 91.0848 91.0848 91.1872 91.1872 0 0 0-91.0848-90.9312z" fill="#585858" p-id="9049"></path></svg>